<svg width="27" height="28" viewBox="0 0 27 28" fill="none" xmlns="http://www.w3.org/2000/svg">
<g id="dashicons:cart">
<path id="Vector" d="M8.10034 18.0499H20.2503C20.9928 18.0499 21.6003 18.6574 21.6003 19.3999C21.6003 20.1424 20.9928 20.7499 20.2503 20.7499H6.75034C6.00784 20.7499 5.40034 20.1424 5.40034 19.3999V5.89989H2.70034C1.95784 5.89989 1.35034 5.29239 1.35034 4.54989C1.35034 3.80739 1.95784 3.19989 2.70034 3.19989H6.75034C7.49284 3.19989 8.10034 3.80739 8.10034 4.54989V7.24989H25.6503L20.2503 16.6999H8.10034V18.0499ZM7.42534 22.0999C8.54584 22.0999 9.45034 23.0044 9.45034 24.1249C9.45034 25.2454 8.54584 26.1499 7.42534 26.1499C6.30484 26.1499 5.40034 25.2454 5.40034 24.1249C5.40034 23.0044 6.30484 22.0999 7.42534 22.0999ZM19.5753 22.0999C20.6958 22.0999 21.6003 23.0044 21.6003 24.1249C21.6003 25.2454 20.6958 26.1499 19.5753 26.1499C18.4548 26.1499 17.5503 25.2454 17.5503 24.1249C17.5503 23.0044 18.4548 22.0999 19.5753 22.0999Z" fill="white"/>
</g>
</svg>
