<svg width="63" height="64" viewBox="0 0 63 64" fill="none" xmlns="http://www.w3.org/2000/svg">
<g id="Facebook">
<path id="Container" fill-rule="evenodd" clip-rule="evenodd" d="M7.875 31.7804C7.875 43.3707 16.4062 53.0075 27.5625 54.9609L27.6942 54.8564C27.6503 54.848 27.6064 54.8394 27.5625 54.8307V38.2918H21.6562V31.7804H27.5625V26.5713C27.5625 20.711 31.3687 17.4553 36.75 17.4553C38.4562 17.4553 40.2938 17.7158 42 17.9762V23.9667H38.9813C36.0938 23.9667 35.4375 25.3992 35.4375 27.2224V31.7804H41.7375L40.6875 38.2918H35.4375V54.8307C35.3936 54.8394 35.3497 54.848 35.3058 54.8564L35.4375 54.9609C46.5938 53.0075 55.125 43.3707 55.125 31.7804C55.125 18.8878 44.4937 8.33936 31.5 8.33936C18.5063 8.33936 7.875 18.8878 7.875 31.7804Z" fill="white"/>
</g>
</svg>
