<svg width="63" height="59" viewBox="0 0 63 59" fill="none" xmlns="http://www.w3.org/2000/svg">
<g id="Instagram">
<path id="Vector" d="M31.501 8.38672C25.2795 8.38672 24.4987 8.41154 22.0551 8.51298C19.6163 8.61485 17.9516 8.96706 16.495 9.48384C14.9883 10.0176 13.7102 10.7316 12.4369 11.8936C11.1626 13.0551 10.3799 14.2211 9.79291 15.5951C9.22497 16.9242 8.8384 18.4432 8.72863 20.6671C8.61933 22.8962 8.5907 23.6089 8.5907 29.2843C8.5907 34.9597 8.61838 35.6698 8.7291 37.8989C8.84126 40.1236 9.22736 41.6421 9.79339 42.9709C10.379 44.3453 11.1617 45.5112 12.4355 46.6728C13.7083 47.8352 14.9864 48.551 16.4922 49.0847C17.9497 49.6015 19.6149 49.9537 22.0532 50.0556C24.4968 50.157 25.2771 50.1819 31.4981 50.1819C37.7202 50.1819 38.4986 50.157 40.9421 50.0556C43.3809 49.9537 45.0475 49.6015 46.505 49.0847C48.0113 48.551 49.2875 47.8352 50.5603 46.6728C51.8346 45.5112 52.6173 44.3453 53.2043 42.9713C53.7675 41.6421 54.1541 40.1232 54.2686 37.8993C54.3784 35.6702 54.407 34.9597 54.407 29.2843C54.407 23.6089 54.3784 22.8966 54.2686 20.6675C54.1541 18.4428 53.7675 16.9242 53.2043 15.5955C52.6173 14.2211 51.8346 13.0551 50.5603 11.8936C49.286 10.7312 48.0118 10.0172 46.5036 9.48384C45.0432 8.96706 43.3776 8.61485 40.9388 8.51298C38.4952 8.41154 37.7173 8.38672 31.4938 8.38672H31.501ZM29.4459 12.1526C30.0559 12.1518 30.7364 12.1526 31.501 12.1526C37.6175 12.1526 38.3425 12.1727 40.7579 12.2728C42.9915 12.366 44.2037 12.7064 45.0112 12.9925C46.0803 13.3712 46.8425 13.824 47.6438 14.5554C48.4456 15.2868 48.9419 15.9834 49.3581 16.9586C49.6717 17.6944 50.0453 18.8002 50.147 20.8377C50.2568 23.0407 50.2806 23.7025 50.2806 29.2795C50.2806 34.8565 50.2568 35.5183 50.147 37.7212C50.0449 39.7588 49.6717 40.8646 49.3581 41.6004C48.9429 42.5756 48.4456 43.27 47.6438 44.001C46.842 44.7324 46.0808 45.1852 45.0112 45.5639C44.2047 45.8513 42.9915 46.1908 40.7579 46.284C38.343 46.3842 37.6175 46.4059 31.501 46.4059C25.384 46.4059 24.659 46.3842 22.2441 46.284C20.0105 46.19 18.7983 45.8495 17.9903 45.5635C16.9212 45.1847 16.1576 44.7319 15.3558 44.0005C14.554 43.2691 14.0577 42.5743 13.6415 41.5986C13.328 40.8628 12.9543 39.757 12.8526 37.7195C12.7428 35.5165 12.7209 34.8548 12.7209 29.2743C12.7209 23.6937 12.7428 23.0355 12.8526 20.8325C12.9547 18.795 13.328 17.6892 13.6415 16.9525C14.0567 15.9773 14.554 15.2807 15.3558 14.5493C16.1576 13.8179 16.9212 13.3651 17.9903 12.9855C18.7978 12.6981 20.0105 12.3586 22.2441 12.265C24.3574 12.1779 25.1764 12.1518 29.4459 12.1474V12.1526ZM43.7293 15.6225C42.2116 15.6225 40.9803 16.7444 40.9803 18.1293C40.9803 19.5138 42.2116 20.637 43.7293 20.637C45.247 20.637 46.4783 19.5138 46.4783 18.1293C46.4783 16.7449 45.247 15.6216 43.7293 15.6216V15.6225ZM31.501 18.5525C25.0041 18.5525 19.7366 23.3576 19.7366 29.2843C19.7366 35.2109 25.0041 40.0139 31.501 40.0139C37.9979 40.0139 43.2635 35.2109 43.2635 29.2843C43.2635 23.3576 37.9974 18.5525 31.5005 18.5525H31.501ZM31.501 22.3184C35.7181 22.3184 39.1371 25.437 39.1371 29.2843C39.1371 33.1312 35.7181 36.2501 31.501 36.2501C27.2835 36.2501 23.8649 33.1312 23.8649 29.2843C23.8649 25.437 27.2835 22.3184 31.501 22.3184Z" fill="white"/>
</g>
</svg>
