<svg width="50" height="50" viewBox="0 0 50 50" fill="none" xmlns="http://www.w3.org/2000/svg">
<g id="shopping-cart">
<path id="Vector" d="M18.7501 45.8333C19.9007 45.8333 20.8334 44.9006 20.8334 43.75C20.8334 42.5994 19.9007 41.6667 18.7501 41.6667C17.5995 41.6667 16.6667 42.5994 16.6667 43.75C16.6667 44.9006 17.5995 45.8333 18.7501 45.8333Z" stroke="white" stroke-width="2" stroke-linecap="round" stroke-linejoin="round"/>
<path id="Vector_2" d="M41.6666 45.8333C42.8172 45.8333 43.7499 44.9006 43.7499 43.75C43.7499 42.5994 42.8172 41.6667 41.6666 41.6667C40.516 41.6667 39.5833 42.5994 39.5833 43.75C39.5833 44.9006 40.516 45.8333 41.6666 45.8333Z" stroke="white" stroke-width="2" stroke-linecap="round" stroke-linejoin="round"/>
<path id="Vector_3" d="M2.08325 2.08334H10.4166L15.9999 29.9792C16.1904 30.9383 16.7122 31.7999 17.474 32.4131C18.2357 33.0263 19.1889 33.3521 20.1666 33.3333H40.4166C41.3943 33.3521 42.3475 33.0263 43.1092 32.4131C43.8709 31.7999 44.3927 30.9383 44.5832 29.9792L47.9166 12.5H12.4999" stroke="white" stroke-width="3" stroke-linecap="round" stroke-linejoin="round"/>
</g>
</svg>
