<svg width="30" height="30" viewBox="0 0 30 30" fill="none" xmlns="http://www.w3.org/2000/svg">
<g id="shopping bag">
<path id="Vector" d="M29.624 9.4616C29.4834 9.29714 29.3088 9.16512 29.1122 9.07459C28.9156 8.98407 28.7018 8.93721 28.4854 8.93722H1.51754C1.29889 8.9344 1.08227 8.97948 0.8829 9.06928C0.683526 9.15909 0.506228 9.29145 0.363452 9.45707C0.220676 9.62269 0.115884 9.81755 0.0564344 10.028C-0.00301572 10.2384 -0.015683 10.4593 0.0193218 10.6751L2.62622 26.1517C2.80174 27.2125 3.35173 28.1752 4.17639 28.8652C5.00105 29.5552 6.04573 29.9266 7.12086 29.9122H22.957C24.0321 29.9266 25.0768 29.5552 25.9015 28.8652C26.7261 28.1752 27.2761 27.2125 27.4516 26.1517L29.9836 10.6751C30.0159 10.4589 30.0004 10.2382 29.9383 10.0285C29.8762 9.81889 29.7689 9.62538 29.624 9.4616ZM24.4252 25.6573C24.3678 26.0118 24.1849 26.3339 23.9099 26.5649C23.635 26.7959 23.2861 26.9204 22.927 26.9158H7.04595C6.68684 26.9204 6.33802 26.7959 6.06303 26.5649C5.78803 26.3339 5.60517 26.0118 5.54773 25.6573L3.28543 11.9337H26.7175L24.4252 25.6573ZM8.82882 7.43901C9.01968 7.48854 9.21843 7.49992 9.41369 7.47248C9.60895 7.44504 9.79687 7.37933 9.96668 7.27912C10.1365 7.1789 10.2848 7.04615 10.4032 6.88848C10.5216 6.73081 10.6078 6.55131 10.6566 6.36029C10.9055 5.39514 11.4681 4.54008 12.2559 3.92958C13.0438 3.31909 14.0122 2.98779 15.009 2.98779C16.0057 2.98779 16.9741 3.31909 17.762 3.92958C18.5498 4.54008 19.1124 5.39514 19.3613 6.36029C19.4606 6.74572 19.709 7.07591 20.0518 7.2782C20.2215 7.37837 20.4093 7.44413 20.6044 7.47172C20.7996 7.49931 20.9982 7.48819 21.1891 7.43901C21.3799 7.38982 21.5592 7.30353 21.7167 7.18505C21.8742 7.06657 22.0068 6.91823 22.107 6.74851C22.2072 6.57878 22.2729 6.39098 22.3005 6.19584C22.3281 6.0007 22.317 5.80203 22.2678 5.61119C21.8514 4.00481 20.9133 2.58219 19.6009 1.56661C18.2884 0.551033 16.6759 0 15.0164 0C13.357 0 11.7445 0.551033 10.432 1.56661C9.1196 2.58219 8.18154 4.00481 7.76509 5.61119C7.66454 5.9946 7.72003 6.40223 7.91941 6.74482C8.11878 7.08741 8.44579 7.33702 8.82882 7.43901Z" fill="#475F7D"/>
<path id="Vector_2" d="M9.00865 17.9266H20.9944C21.3917 17.9266 21.7728 17.7688 22.0538 17.4878C22.3347 17.2068 22.4926 16.8258 22.4926 16.4284C22.4926 16.0311 22.3347 15.65 22.0538 15.369C21.7728 15.0881 21.3917 14.9302 20.9944 14.9302H9.00865C8.6113 14.9302 8.23022 15.0881 7.94925 15.369C7.66828 15.65 7.51044 16.0311 7.51044 16.4284C7.51044 16.8258 7.66828 17.2068 7.94925 17.4878C8.23022 17.7688 8.6113 17.9266 9.00865 17.9266ZM19.4962 20.9231H10.5069C10.1095 20.9231 9.72844 21.0809 9.44747 21.3619C9.1665 21.6429 9.00865 22.0239 9.00865 22.4213C9.00865 22.8186 9.1665 23.1997 9.44747 23.4807C9.72844 23.7616 10.1095 23.9195 10.5069 23.9195H19.4962C19.8935 23.9195 20.2746 23.7616 20.5556 23.4807C20.8365 23.1997 20.9944 22.8186 20.9944 22.4213C20.9944 22.0239 20.8365 21.6429 20.5556 21.3619C20.2746 21.0809 19.8935 20.9231 19.4962 20.9231Z" fill="#475F7D"/>
</g>
</svg>
