<svg width="63" height="59" viewBox="0 0 63 59" fill="none" xmlns="http://www.w3.org/2000/svg">
<g id="TikTok">
<path id="Vector" d="M26.2233 41.8771C29.7277 41.8771 32.5685 39.5885 32.5685 36.089V10.1284H40.1782C39.7514 14.8629 44.911 19.4363 50.6011 19.3317V25.8591C45.7348 25.8591 41.5969 23.9821 40.1566 22.9405V36.089C40.1566 41.8771 35.1649 48.4406 26.2233 48.4406C17.2817 48.4406 12.3989 41.8771 12.3989 36.089C12.3989 27.9197 21.8763 23.1818 28.1534 24.3398V30.9883C27.8376 30.8864 27.0233 30.7357 26.3297 30.7357C22.7962 30.6169 19.8781 33.2311 19.8781 36.089C19.8781 39.2857 22.7189 41.8771 26.2233 41.8771Z" fill="white"/>
</g>
</svg>
