<svg width="63" height="59" viewBox="0 0 63 59" fill="none" xmlns="http://www.w3.org/2000/svg">
<g id="Twitter">
<path id="Vector" fill-rule="evenodd" clip-rule="evenodd" d="M51.9007 19.9192C51.9185 20.338 51.9244 20.7566 51.9244 21.1753C51.9244 33.8715 42.1336 48.5285 24.2296 48.5285C18.7298 48.5285 13.6157 46.9296 9.30688 44.2076C10.0685 44.2837 10.8421 44.341 11.6275 44.341C16.1876 44.341 20.3876 42.7988 23.7192 40.2101C19.4598 40.153 15.8632 37.3549 14.6227 33.5479C15.2182 33.6622 15.8315 33.7194 16.4586 33.7194C17.3429 33.7194 18.2015 33.6053 19.0245 33.3769C14.5673 32.5013 11.2101 28.6183 11.2101 23.9548C11.2101 23.8977 11.2101 23.8786 11.2101 23.8405C12.5237 24.5448 14.0272 24.9824 15.6237 25.0395C13.0084 23.3073 11.2892 20.357 11.2892 17.0259C11.2892 15.2747 11.7679 13.6186 12.6107 12.191C17.4102 18.0156 24.5857 21.8417 32.6751 22.2414C32.509 21.5371 32.4239 20.7949 32.4239 20.0526C32.4239 14.7419 36.7821 10.4399 42.1593 10.4399C44.9587 10.4399 47.487 11.6012 49.2616 13.4666C51.4832 13.0479 53.5645 12.2485 55.4479 11.1445C54.7179 13.3906 53.1767 15.2746 51.1627 16.4548C53.1332 16.2263 55.0127 15.7128 56.7556 14.9514C55.4479 16.8739 53.8019 18.5677 51.9007 19.9192Z" fill="white"/>
</g>
</svg>
